<svg width="158" height="158" viewBox="0 0 158 158" fill="none" xmlns="http://www.w3.org/2000/svg">
<path d="M157.615 77.7794L146.365 27.1544C146.051 25.7392 145.203 24.4999 143.997 23.695L110.247 1.195C109.322 0.578578 108.236 0.249751 107.125 0.25H50.875C49.7639 0.249751 48.6776 0.578578 47.7531 1.195L14.0031 23.695C12.7975 24.4999 11.9491 25.7392 11.635 27.1544L0.385001 77.7794C0.176493 78.7176 0.211348 79.6935 0.486251 80.6144L17.3612 136.864C17.6281 137.756 18.1121 138.568 18.7698 139.227C19.4276 139.885 20.2385 140.371 21.13 140.639L77.38 157.514H77.4137C78.4484 157.825 79.5516 157.825 80.5863 157.514H80.6144L136.864 140.639C137.756 140.372 138.568 139.888 139.227 139.23C139.885 138.572 140.371 137.761 140.639 136.87L157.514 80.62C157.79 79.6973 157.824 78.7193 157.615 77.7794ZM50.4587 82.465L28.465 38.4831L69.4263 53.3781L50.4587 82.465ZM79 59.2956L99.1881 90.25H58.8062L79 59.2956ZM98.0238 101.5L79 139.548L59.9762 101.5H98.0238ZM88.5737 53.3781L129.529 38.4831L107.536 82.4706L88.5737 53.3781ZM91.3188 40.4125L108.734 13.7106L128.506 26.89L91.3188 40.4125ZM79 38.7025L61.2587 11.5H96.7412L79 38.7025ZM66.6813 40.4125L29.5 26.89L49.2662 13.7106L66.6813 40.4125ZM39.4338 85.5813L12.4225 75.4506L19.1781 45.0644L39.4338 85.5813ZM68.1437 142.996L31.57 132.027L49.165 105.038L68.1437 142.996ZM108.829 105.038L126.43 132.021L89.8562 142.996L108.829 105.038ZM138.822 45.0644L145.572 75.4506L118.561 85.5756L138.822 45.0644ZM14.5206 88.2531L40.3675 97.9394L24.6569 122.031L14.5206 88.2531ZM133.343 122.031L117.633 97.9394L143.479 88.2531L133.343 122.031Z" fill="#FAFAFA"/>
</svg>
